<svg width="78" height="76" viewBox="0 0 78 76" fill="none" xmlns="http://www.w3.org/2000/svg">
<path d="M67.2125 27.0723H31.721C31.1033 27.0723 30.6025 27.6294 30.6025 28.3167C30.6025 29.0039 31.1033 29.561 31.721 29.561H67.2125C67.8301 29.561 68.3309 29.0039 68.3309 28.3167C68.3309 27.6294 67.8301 27.0723 67.2125 27.0723Z" fill="white"/>
<path d="M67.2125 36.5879H31.721C31.1033 36.5879 30.6025 37.1453 30.6025 37.8328C30.6025 38.5203 31.1033 39.0776 31.721 39.0776H67.2125C67.8301 39.0776 68.3309 38.5203 68.3309 37.8328C68.3309 37.1453 67.8301 36.5879 67.2125 36.5879Z" fill="white"/>
<path d="M67.2125 46.1038H31.721C31.1033 46.1038 30.6025 46.661 30.6025 47.3484C30.6025 48.0358 31.1033 48.593 31.721 48.593H67.2125C67.8301 48.593 68.3309 48.0358 68.3309 47.3484C68.3309 46.661 67.8301 46.1038 67.2125 46.1038Z" fill="white"/>
<path d="M70.7668 16.1858H28.1701C24.5832 16.1858 21.665 19.4335 21.665 23.4259V53.2374C21.665 57.2295 24.5831 60.4774 28.1701 60.4774H58.0264C58.3457 60.4774 58.6423 60.6373 58.8403 60.9163L68.4819 74.5017C68.8619 75.0371 69.4163 75.3289 69.9969 75.3289C70.2126 75.3289 70.4322 75.2885 70.6475 75.2052C71.4419 74.8982 71.9552 74.095 71.9552 73.1591V60.3538C74.9712 59.7268 77.2719 56.759 77.2719 53.2374V23.4257C77.2719 19.4335 74.3538 16.1858 70.7668 16.1858ZM75.035 53.2374C75.035 55.8227 73.1452 57.953 70.8223 57.9859C70.2103 57.9947 69.7182 58.5493 69.7182 59.2307V72.2272L60.5956 59.3731C59.971 58.4926 59.0345 57.9877 58.0264 57.9877H28.1701C25.8166 57.9877 23.9019 55.8566 23.9019 53.2372V23.4257C23.9019 20.8063 25.8165 18.6752 28.1701 18.6752H70.7668C73.1203 18.6752 75.035 20.8063 75.035 23.4257V53.2374Z" fill="white"/>
<path d="M17.3972 36.7681C16.6322 36.8889 15.9471 37.3272 15.4682 38.0021L7.78514 48.8277V37.978C7.78514 37.2967 7.29303 36.742 6.68103 36.7332C4.73779 36.7057 3.15678 34.9236 3.15678 32.7607V6.80922C3.15678 4.6179 4.75867 2.83503 6.72756 2.83503H43.8092C45.7781 2.83503 47.3799 4.6179 47.3799 6.80922V11.6111C47.3799 12.2986 47.8807 12.8559 48.4984 12.8559C49.116 12.8559 49.6168 12.2986 49.6168 11.6111V6.80922C49.6168 3.24515 47.0115 0.345459 43.8092 0.345459H6.72756C3.52527 0.345459 0.919922 3.24515 0.919922 6.80922V32.7607C0.919922 35.8589 2.91386 38.4764 5.54843 39.0882V50.1031C5.54843 50.9874 6.03338 51.7464 6.78407 52.0365C6.98763 52.1151 7.19491 52.1533 7.39891 52.1533C7.94724 52.1533 8.47141 51.8775 8.83035 51.3718L17.2236 39.5453C17.3447 39.3745 17.5182 39.2636 17.7117 39.2329C18.3233 39.1363 18.7487 38.5061 18.6618 37.8255C18.575 37.1448 18.0097 36.671 17.3972 36.7681V36.7681Z" fill="white"/>
</svg>
