<svg width="82" height="81" viewBox="0 0 82 81" fill="none" xmlns="http://www.w3.org/2000/svg">
<path d="M50.0291 47.387H14.7733C13.9929 47.387 13.3604 47.9118 13.3604 48.5591C13.3604 49.2065 13.993 49.7312 14.7733 49.7312H50.0291C50.8095 49.7312 51.442 49.2064 51.442 48.5591C51.442 47.9117 50.8095 47.387 50.0291 47.387Z" fill="white"/>
<path d="M39.0812 52.906H14.7733C13.9929 52.906 13.3604 53.4311 13.3604 54.0786C13.3604 54.7262 13.993 55.2512 14.7733 55.2512H39.0812C39.8616 55.2512 40.4941 54.7262 40.4941 54.0786C40.4941 53.4311 39.8616 52.906 39.0812 52.906Z" fill="white"/>
<path d="M80.0867 24.3241C80.8671 24.3241 81.4996 23.799 81.4996 23.1515V12.5444C81.4996 11.8969 80.8671 11.3719 80.0867 11.3719H64.0629V1.47261C64.0629 0.825091 63.4304 0.300049 62.6499 0.300049H1.47057C0.690114 0.300049 0.0576172 0.825091 0.0576172 1.47261V41.7454C0.0576172 42.393 0.690114 42.918 1.47057 42.918C2.25102 42.918 2.88352 42.393 2.88352 41.7454V2.64532H61.237V56.8406H50.5694C49.789 56.8406 49.1565 57.3657 49.1565 58.0132V66.8658L2.88371 66.8659V46.4358C2.88371 45.7883 2.25121 45.2633 1.47076 45.2633C0.690302 45.2633 0.0578053 45.7883 0.0578053 46.4358V68.0385C0.0578053 68.6862 0.690302 69.2111 1.47076 69.2111H17.4946V79.1102C17.4946 79.7578 18.1271 80.2827 18.9075 80.2827H68.0066C68.018 80.2827 68.0291 80.2816 68.0404 80.2813C68.0751 80.2805 68.1097 80.2799 68.1442 80.2771C68.1711 80.2749 68.1976 80.2708 68.2242 80.2672C68.2428 80.2649 68.2618 80.2633 68.2805 80.2602C68.3089 80.2555 68.3366 80.249 68.3644 80.243C68.381 80.2394 68.3977 80.2368 68.4139 80.2327C68.4408 80.226 68.4672 80.2174 68.4936 80.2093C68.5103 80.2041 68.5272 80.1999 68.5438 80.1943C68.5692 80.1855 68.5937 80.1752 68.6184 80.1654C68.6351 80.1587 68.6522 80.1529 68.6688 80.1457C68.695 80.1342 68.7202 80.1209 68.7454 80.1079C68.7593 80.1007 68.7738 80.0945 68.7876 80.087C68.8217 80.0682 68.8544 80.0476 68.8866 80.0264C68.8907 80.0236 68.8953 80.0214 68.8994 80.0184C68.9359 79.9937 68.9711 79.9675 69.0048 79.9395L81.0853 69.9142C81.1301 69.877 81.1702 69.8369 81.2084 69.7953C81.2176 69.7853 81.2267 69.7753 81.2353 69.7652C81.2711 69.7234 81.3046 69.6806 81.3334 69.6356C81.3347 69.6336 81.3357 69.6314 81.337 69.6294C81.3643 69.5863 81.3873 69.5414 81.4078 69.4958C81.4132 69.484 81.4183 69.4721 81.4232 69.4601C81.4426 69.4123 81.4597 69.3635 81.4718 69.3138C81.4718 69.3135 81.472 69.3132 81.472 69.3129C81.4836 69.264 81.4902 69.214 81.4944 69.1639C81.4955 69.1508 81.4962 69.1378 81.4966 69.1247C81.4972 69.1114 81.4989 69.0984 81.4989 69.0851V27.8419C81.4989 27.1944 80.8664 26.6693 80.0859 26.6693C79.3055 26.6693 78.673 27.1944 78.673 27.8419V67.9123H68.006C67.2255 67.9123 66.5931 68.4373 66.5931 69.0848V77.9374H20.3201V69.2109H50.5694C50.5809 69.2109 50.592 69.2096 50.6033 69.2095C50.6379 69.2089 50.6726 69.2081 50.707 69.2053C50.734 69.2031 50.7605 69.199 50.787 69.1954C50.8057 69.1931 50.8247 69.1915 50.8433 69.1884C50.8717 69.1837 50.8994 69.1772 50.9273 69.1711C50.9437 69.1675 50.9606 69.1648 50.9768 69.1607C51.0037 69.154 51.0301 69.1454 51.0564 69.1373C51.0732 69.1322 51.0901 69.1279 51.1067 69.1223C51.1321 69.1136 51.1566 69.1033 51.1812 69.0934C51.198 69.0867 51.2151 69.0809 51.2317 69.0737C51.2578 69.0622 51.2831 69.0489 51.3083 69.0359C51.3222 69.0287 51.3367 69.0225 51.3504 69.015C51.3845 68.9963 51.4173 68.9758 51.4495 68.9544C51.4536 68.9516 51.4581 68.9492 51.4623 68.9466C51.4988 68.9219 51.534 68.8955 51.5677 68.8677L63.6482 58.8424C63.693 58.8052 63.7333 58.765 63.7715 58.7235C63.7807 58.7136 63.7895 58.7036 63.7982 58.6936C63.8342 58.6519 63.8677 58.609 63.8965 58.5638C63.8976 58.562 63.8985 58.5601 63.8997 58.5582C63.9271 58.5149 63.9501 58.4699 63.9708 58.424C63.9761 58.4121 63.9814 58.4004 63.9861 58.3884C64.0057 58.3406 64.0228 58.292 64.0346 58.242C64.0346 58.2417 64.0346 58.2414 64.0348 58.2411C64.0465 58.1922 64.0531 58.142 64.0572 58.0919C64.0584 58.0788 64.0589 58.0658 64.0595 58.0527C64.06 58.0394 64.0619 58.0264 64.0619 58.0132V13.717H78.6728V23.1515C78.6737 23.799 79.3062 24.3241 80.0867 24.3241ZM69.4191 70.2574H76.6755L69.4191 76.2792V70.2574ZM51.9822 65.2075V59.1857H59.2386L51.9822 65.2075Z" fill="white"/>
<path d="M42.1026 19.6563C41.3768 19.054 40.4115 18.7222 39.385 18.7222C38.3585 18.7223 37.3934 19.0541 36.6673 19.6565L28.33 26.5753L25.5201 24.2435C24.7944 23.6411 23.8291 23.3093 22.8024 23.3093C21.7757 23.3093 20.8106 23.6411 20.0848 24.2435C18.5863 25.4871 18.5863 27.5104 20.0848 28.7539L25.6125 33.3412C26.3386 33.9436 27.3037 34.2754 28.33 34.2754C29.3567 34.2754 30.3218 33.9434 31.0477 33.3411L42.1024 24.1671C42.8283 23.5647 43.2283 22.7636 43.2283 21.9118C43.2283 21.0596 42.8287 20.2587 42.1026 19.6563ZM40.1041 22.5085L29.0491 31.6827C28.8569 31.8422 28.6016 31.93 28.33 31.93C28.0623 31.93 27.8001 31.8397 27.6109 31.6828L22.0833 27.0957C21.6865 26.7664 21.6865 26.2307 22.0833 25.9017C22.2755 25.7422 22.5308 25.6546 22.8024 25.6546C23.0741 25.6546 23.3295 25.7422 23.5215 25.9017L27.3306 29.0628C27.5957 29.2827 27.955 29.4063 28.3298 29.4063C28.7046 29.4063 29.0638 29.2827 29.329 29.0628L38.6657 21.3146C38.8579 21.1551 39.1133 21.0673 39.385 21.0673C39.6564 21.0673 39.9119 21.1551 40.1041 21.3146C40.2963 21.4741 40.4019 21.6861 40.4019 21.9115C40.4022 22.1371 40.2963 22.349 40.1041 22.5085Z" fill="white"/>
<path d="M31.0946 9.04077C26.7584 9.04077 22.6043 10.139 19.0813 12.2166C18.4452 12.5917 18.296 13.3237 18.7479 13.8517C19.1999 14.3796 20.0816 14.5035 20.7183 14.1282C23.7603 12.3341 27.3484 11.3859 31.0944 11.3859C40.9831 11.3859 49.0282 18.0622 49.0282 26.2684C49.0282 34.4745 40.9831 41.151 31.0944 41.151C21.2058 41.151 13.1607 34.4747 13.1607 26.2684C13.1607 22.9325 14.4599 19.7801 16.918 17.1518C17.3967 16.6402 17.2849 15.9035 16.6684 15.5065C16.0521 15.1096 15.1645 15.2022 14.6858 15.7138C11.8394 18.7572 10.335 22.407 10.335 26.2684C10.335 35.7678 19.6477 43.4961 31.0946 43.4961C42.5415 43.4961 51.8543 35.7678 51.8543 26.2684C51.8543 16.7689 42.5417 9.04077 31.0946 9.04077Z" fill="white"/>
</svg>
