<svg width="82" height="81" viewBox="0 0 82 81" fill="none" xmlns="http://www.w3.org/2000/svg">
<path d="M47.4207 40.339C47.4207 36.3297 44.5664 33.0679 41.058 33.0679C37.5496 33.0679 34.6953 36.3297 34.6953 40.339C34.6953 44.3483 37.5496 47.6101 41.058 47.6101C44.5664 47.6101 47.4207 44.3483 47.4207 40.339ZM41.058 43.9745C39.3038 43.9745 37.8766 42.3436 37.8766 40.339C37.8766 38.3343 39.3038 36.7034 41.058 36.7034C42.8122 36.7034 44.2393 38.3343 44.2393 40.339C44.2393 42.3436 42.8122 43.9745 41.058 43.9745Z" fill="white"/>
<path d="M11.4716 80.3303H33.8999C34.7783 80.3303 35.4906 79.5165 35.4906 78.5125C35.4906 77.5086 34.7783 76.6947 33.8999 76.6947H11.4716C7.63075 76.6947 4.41697 73.5671 3.6781 69.4218H78.4377C77.6989 73.5671 74.4851 76.6947 70.6443 76.6947H48.2159C47.3375 76.6947 46.6252 77.5086 46.6252 78.5125C46.6252 79.5165 47.3375 80.3303 48.2159 80.3303H70.6443C76.7839 80.3303 81.7789 74.6221 81.7789 67.6058C81.7789 66.6018 81.0666 65.788 80.1883 65.788H74.6209V18.5255C74.6209 17.5216 73.9086 16.7077 73.0303 16.7077H61.7366V2.16544C61.7366 1.49504 61.4137 0.878995 60.8965 0.5627C60.3792 0.246405 59.7514 0.281125 59.2636 0.653045L47.4206 9.67564V2.16544C47.4206 1.16148 46.7083 0.347656 45.8299 0.347656H21.9699C21.0916 0.347656 20.3793 1.16148 20.3793 2.16544V16.7077H9.08557C8.2072 16.7077 7.4949 17.5216 7.4949 18.5255V65.788H1.92758C1.04921 65.788 0.336914 66.6018 0.336914 67.6058C0.336914 74.6221 5.33192 80.3303 11.4716 80.3303ZM49.0112 65.788H33.1046V60.3347C33.1046 55.323 36.6725 51.2457 41.0579 51.2457C45.4434 51.2457 49.0112 55.323 49.0112 60.3347V65.788ZM58.5552 5.56198V20.5824L48.6974 13.0722L58.5552 5.56198ZM23.5606 3.98323H44.2393V22.1611H23.5606V3.98323ZM10.6762 20.3433H20.3793V23.9789C20.3793 24.9829 21.0916 25.7967 21.9699 25.7967H45.8299C46.7083 25.7967 47.4206 24.9829 47.4206 23.9789V16.4687L59.2636 25.4913C59.7524 25.8638 60.38 25.8974 60.8965 25.5816C61.4137 25.2653 61.7366 24.6493 61.7366 23.9789V20.3433H71.4396V65.788H52.1926V60.3347C52.1926 53.3184 47.1976 47.6101 41.0579 47.6101C34.9183 47.6101 29.9233 53.3184 29.9233 60.3347V65.788H10.6762V20.3433Z" fill="white"/>
<path d="M41.0584 80.3303C41.9369 80.3303 42.6491 79.5164 42.6491 78.5125C42.6491 77.5085 41.9369 76.6946 41.0584 76.6946C40.1799 76.6946 39.4678 77.5085 39.4678 78.5125C39.4678 79.5164 40.1799 80.3303 41.0584 80.3303Z" fill="white"/>
</svg>
