<svg width="83" height="81" viewBox="0 0 83 81" fill="none" xmlns="http://www.w3.org/2000/svg">
<path d="M51.2549 0.299072H56.8716V8.43481H51.2549V0.299072Z" fill="white"/>
<path d="M68.1055 0.299072H73.7221V8.43481H68.1055V0.299072Z" fill="white"/>
<path d="M42.8311 0.299072H48.4477V8.43481H42.8311V0.299072Z" fill="white"/>
<path d="M59.6816 0.299072H65.2983V8.43481H59.6816V0.299072Z" fill="white"/>
<path d="M76.5303 0.299072H82.147V8.43481H76.5303V0.299072Z" fill="white"/>
<path d="M23.1723 59.9631C26.2432 59.9631 29.1161 59.1522 31.5973 57.761V44.2131C31.5973 40.6291 29.5233 37.4425 26.267 35.8397L23.1723 38.8284L17.2691 33.1277C14.0129 34.7305 11.9389 37.9171 11.9389 41.501L11.9375 55.7839C13.5593 57.1914 15.4606 58.2952 17.5556 59.0139V41.817L15.5237 40.8352L16.7805 38.4093L20.3639 40.141V59.7191C21.2794 59.8669 22.2132 59.9631 23.1723 59.9631V59.9631Z" fill="white"/>
<path d="M13.1551 26.6051L16.1516 28.7747V24.4734C16.1516 24.1114 16.0055 23.7697 15.7402 23.5134L14.5775 22.3906C13.7813 21.6245 13.3432 20.6021 13.3432 19.5146V19.2827C13.3432 17.5145 14.5171 16.0066 16.1516 15.4466V13.8587C16.1516 11.6159 18.0416 9.79075 20.3641 9.79075H27.3849H30.1933C32.5158 9.79075 34.4058 7.96558 34.4058 5.72277C34.4058 3.47995 32.5158 1.65479 30.1933 1.65479C29.6232 1.65479 29.0643 1.76598 28.5504 1.97616L29.4041 3.00671L21.3007 3.01078C13.8164 3.01078 7.72656 8.89037 7.72656 16.1192C7.72656 20.2224 9.75559 24.1426 13.1551 26.6051V26.6051Z" fill="white"/>
<path d="M29.453 12.5032H27.3847H20.3639C19.5888 12.5032 18.9597 13.112 18.9597 13.8592V17.9271H17.5555C16.7804 17.9271 16.1514 18.536 16.1514 19.2831V19.515C16.1514 19.8771 16.2974 20.2188 16.5628 20.475L17.7254 21.5978C18.5202 22.3667 18.9597 23.3877 18.9597 24.4752V30.9257L23.1722 34.9937L24.5764 33.6377V28.7751H25.3992C26.3049 28.7751 27.1558 28.4347 27.7961 27.815C28.4364 27.1981 28.7889 26.3763 28.7889 25.5017V23.7294L32.9719 22.3829C32.6798 17.7373 30.3784 13.8809 29.453 12.5032V12.5032ZM27.3847 17.9271C26.6096 17.9271 25.9805 17.3197 25.9805 16.5711C25.9805 15.8226 26.6096 15.2152 27.3847 15.2152C28.1598 15.2152 28.7889 15.8226 28.7889 16.5711C28.7889 17.3197 28.1598 17.9271 27.3847 17.9271Z" fill="white"/>
<path d="M37.5166 63.7626L54.6222 80.2815C58.0483 80.0198 60.7907 77.3715 61.0617 74.0628L43.9561 57.5439C42.2149 59.9739 40.0329 62.0811 37.5166 63.7626Z" fill="white"/>
<path d="M45.6385 43.6908C45.6385 35.8572 41.2883 28.6879 34.2563 24.8274L31.594 25.6844C31.5855 25.9597 31.5364 26.2254 31.4901 26.4926C38.4168 29.606 42.8301 36.226 42.8301 43.6908C42.8301 54.1592 34.0119 62.6749 23.1718 62.6749C12.3316 62.6749 3.51341 54.1592 3.51341 43.6908C3.51341 37.6864 6.37792 32.1797 11.256 28.5998C10.5006 28.0316 9.81251 27.3984 9.17783 26.7204C3.85182 30.8237 0.705078 37.0776 0.705078 43.6908C0.705078 55.6535 10.7842 65.387 23.1718 65.387C35.5593 65.387 45.6385 55.6535 45.6385 43.6908Z" fill="white"/>
<path d="M62.4883 69.4551H82.1467V50.4709H62.4883V69.4551ZM69.0977 59.0043L70.9133 60.7576L76.9414 54.9363L78.9269 56.8537L70.9133 64.5924L67.1122 60.9217L69.0977 59.0043Z" fill="white"/>
<path d="M62.4883 47.759H82.1467V28.7751H62.4883V47.759ZM69.0977 37.3084L70.9133 39.0617L76.9414 33.2404L78.9269 35.1578L70.9133 42.8964L67.1122 39.2258L69.0977 37.3084Z" fill="white"/>
<path d="M48.4473 12.5032H73.7223V15.2151H48.4473V12.5032Z" fill="white"/>
<path d="M48.4473 17.927H73.7223V20.6392H48.4473V17.927Z" fill="white"/>
<path d="M59.6816 23.3511H62.49V26.0632H59.6816V23.3511Z" fill="white"/>
<path d="M48.4473 23.3511H51.2556V26.0632H48.4473V23.3511Z" fill="white"/>
<path d="M54.0645 23.3511H56.8728V26.0632H54.0645V23.3511Z" fill="white"/>
<path d="M65.2969 23.3511H68.1052V26.0632H65.2969V23.3511Z" fill="white"/>
<path d="M70.915 23.3511H73.7233V26.0632H70.915V23.3511Z" fill="white"/>
</svg>
