<svg width="82" height="81" viewBox="0 0 82 81" fill="none" xmlns="http://www.w3.org/2000/svg">
<path d="M41.2433 0.347656H41.2405C34.105 0.348687 27.0952 1.577 20.9128 3.90962C14.7305 6.24224 9.59257 9.59729 6.01356 13.6389C2.43455 17.6804 0.540034 22.2667 0.519697 26.9384C0.499359 31.6101 2.35392 36.2033 5.89768 40.2582C9.32377 44.1598 14.1936 47.4345 20.0592 49.7811C20.9362 50.1395 21.6589 50.6385 22.1589 51.2309C22.6588 51.8233 22.9194 52.4895 22.916 53.1664V59.2309C21.9699 59.4494 21.1207 59.8173 20.4436 60.302C19.7664 60.7866 19.2823 61.3731 19.0339 62.0095C18.7855 62.6459 18.7806 63.3126 19.0197 63.9505C19.2587 64.5884 19.7343 65.1779 20.4043 65.6668C19.7343 66.1557 19.2587 66.7452 19.0197 67.3832C18.7806 68.0211 18.7855 68.6878 19.0339 69.3242C19.2823 69.9605 19.7664 70.547 20.4436 71.0317C21.1207 71.5164 21.9699 71.8842 22.916 72.1028V73.6651C22.919 75.4322 23.9926 77.1264 25.9011 78.3759C27.8096 79.6255 30.3972 80.3283 33.0963 80.3303H49.3847C52.0837 80.3283 54.6713 79.6255 56.5799 78.3759C58.4884 77.1264 59.5619 75.4322 59.5649 73.6651V72.1028C60.511 71.8842 61.3602 71.5164 62.0374 71.0317C62.7145 70.547 63.1987 69.9605 63.447 69.3242C63.6954 68.6878 63.7003 68.0211 63.4613 67.3832C63.2222 66.7452 62.7467 66.1557 62.0766 65.6668C62.7467 65.1779 63.2222 64.5884 63.4613 63.9505C63.7003 63.3126 63.6954 62.6459 63.447 62.0095C63.1987 61.3731 62.7145 60.7866 62.0374 60.302C61.3602 59.8173 60.511 59.4494 59.5649 59.2309V53.1655C59.5641 52.4778 59.8348 51.8016 60.3506 51.2024C60.8664 50.6033 61.6099 50.1016 62.5091 49.746C68.4541 47.3639 73.3651 44.0221 76.7713 40.0407C80.1774 36.0594 81.9646 31.5719 81.9615 27.0085C81.9615 12.3087 63.6953 0.348656 41.2433 0.347656V0.347656ZM24.9521 61.6677H57.5289C58.0689 61.6677 58.5867 61.8081 58.9686 62.0581C59.3504 62.3081 59.5649 62.6472 59.5649 63.0007C59.5649 63.3543 59.3504 63.6934 58.9686 63.9433C58.5867 64.1933 58.0689 64.3338 57.5289 64.3338H24.9521C24.4121 64.3338 23.8942 64.1933 23.5124 63.9433C23.1305 63.6934 22.916 63.3543 22.916 63.0007C22.916 62.6472 23.1305 62.3081 23.5124 62.0581C23.8942 61.8081 24.4121 61.6677 24.9521 61.6677V61.6677ZM49.3847 77.6642H33.0963C31.4768 77.663 29.9243 77.2413 28.7792 76.4916C27.634 75.7419 26.9899 74.7254 26.9881 73.6651V72.3321H55.4928V73.6651C55.491 74.7254 54.8469 75.7419 53.7018 76.4916C52.5567 77.2413 51.0041 77.663 49.3847 77.6642V77.6642ZM57.5289 69.666H24.9521C24.4121 69.666 23.8942 69.5255 23.5124 69.2755C23.1305 69.0255 22.916 68.6865 22.916 68.3329C22.916 67.9794 23.1305 67.6403 23.5124 67.3903C23.8942 67.1403 24.4121 66.9999 24.9521 66.9999H57.5289C58.0689 66.9999 58.5867 67.1403 58.9686 67.3903C59.3504 67.6403 59.5649 67.9794 59.5649 68.3329C59.5649 68.6865 59.3504 69.0255 58.9686 69.2755C58.5867 69.5255 58.0689 69.666 57.5289 69.666ZM60.3794 47.4736C58.8849 48.0664 57.6498 48.902 56.7936 49.8992C55.9375 50.8965 55.4894 52.0217 55.4928 53.1657V59.0016H26.9881V53.1664C26.9892 52.0328 26.5482 50.9178 25.7068 49.9271C24.8654 48.9363 23.6515 48.1027 22.1802 47.5051C15.3471 44.7848 10.0607 40.6755 7.12776 35.8044C4.19481 30.9333 3.77629 25.5677 5.93605 20.5263C8.0958 15.4848 12.7153 11.0444 19.0896 7.88246C25.464 4.72051 33.2432 3.01065 41.2405 3.01375H41.2433C61.4498 3.01458 77.8894 13.7781 77.8894 27.0085C77.9107 31.1183 76.3098 35.162 73.242 38.7476C70.1742 42.3332 65.7434 45.339 60.3794 47.4736V47.4736Z" fill="white"/>
<path d="M63.5637 27.0085C65.4328 25.4679 66.7341 23.9211 67.3342 22.4511C68.0189 20.775 67.7565 19.2282 66.5756 17.978C64.4713 15.7501 59.7606 14.7219 53.3102 15.0821C52.9925 15.1 52.6711 15.1225 52.3481 15.1466C52.1491 14.8225 51.9445 14.5034 51.7279 14.1968C49.0683 10.4237 45.3441 8.34619 41.2409 8.34619C37.1378 8.34619 33.4136 10.4237 30.7553 14.1962C30.5387 14.5034 30.3341 14.8225 30.135 15.146C29.8121 15.1218 29.4906 15.0993 29.173 15.0815C22.722 14.7207 18.0119 15.7495 15.9076 17.9773C14.7267 19.227 14.4643 20.7743 15.1489 22.4504C15.749 23.9204 17.0503 25.4664 18.9194 27.0079C17.0503 28.5485 15.749 30.0953 15.1489 31.5653C14.4643 33.2414 14.7267 34.7882 15.9076 36.0385C17.7365 37.9747 21.5335 39.0044 26.7305 39.0044C27.5134 39.0044 28.3278 38.9809 29.1738 38.934C29.4914 38.9161 29.8128 38.8936 30.1358 38.8695C30.3348 39.1936 30.5394 39.5127 30.756 39.8193C33.4136 43.5934 37.1378 45.6709 41.2409 45.6709C45.3441 45.6709 49.0683 43.5934 51.7266 39.8209C51.9432 39.5137 52.1478 39.1946 52.3468 38.8711C52.6698 38.8953 52.9913 38.9178 53.3089 38.9356C54.1538 38.9828 54.9683 39.0063 55.7521 39.0061C60.9484 39.0061 64.7464 37.9758 66.575 36.0401C67.7559 34.7904 68.0184 33.2431 67.3337 31.567C66.7341 30.096 65.4328 28.5492 63.5637 27.0085ZM55.7562 17.6774C59.4247 17.6774 62.0728 18.2801 63.1115 19.3805C63.6968 19.999 63.7925 20.8005 63.3996 21.7633C62.9875 22.7722 62.0822 23.8689 60.7843 24.9927C58.9724 23.8305 57.0224 22.7644 54.9527 21.8044C54.6659 20.4319 54.2408 19.0733 53.6802 17.7375C54.404 17.6972 55.097 17.6774 55.7562 17.6774V17.6774ZM46.5645 32.4941C44.8338 33.1051 43.057 33.6584 41.2409 34.1517C39.4248 33.6583 37.6481 33.1049 35.9174 32.4938C34.3206 31.9302 32.79 31.3247 31.345 30.6912C30.9659 28.2425 30.9659 25.7749 31.345 23.3262C32.79 22.693 34.3206 22.0872 35.9174 21.5236C37.648 20.9123 39.4248 20.3586 41.2409 19.8649C43.0572 20.3584 44.834 20.912 46.5647 21.5233C48.1615 22.0868 49.6921 22.6924 51.1372 23.3259C51.5162 25.7746 51.5162 28.2421 51.1372 30.6909C49.6918 31.3242 48.1612 31.9302 46.5645 32.4938V32.4941ZM50.2853 34.1849C50.0858 34.7754 49.8645 35.3414 49.6213 35.8828C48.7036 35.7569 47.7543 35.6021 46.7818 35.4216C47.355 35.2338 47.9271 35.0417 48.4964 34.8409C49.1032 34.6265 49.6995 34.4077 50.2853 34.1846V34.1849ZM35.7003 35.4216C34.7276 35.6021 33.7783 35.7569 32.8605 35.883C32.6183 35.3421 32.3969 34.7761 32.1965 34.1849C32.7824 34.4078 33.3787 34.6265 33.9855 34.8409C34.5548 35.0415 35.1269 35.2335 35.7003 35.4213V35.4216ZM27.0395 28.5832C26.0937 28.0643 25.2136 27.5376 24.4058 27.0089C25.2136 26.4802 26.0937 25.9535 27.0395 25.4346C27.0074 25.9556 26.9886 26.4803 26.9886 27.0089C26.9886 27.5374 27.0074 28.0618 27.0395 28.5828V28.5832ZM32.1965 19.8329C32.3959 19.243 32.6169 18.6777 32.8595 18.1371C33.7803 18.2634 34.7276 18.4139 35.7036 18.5952C35.1292 18.7833 34.5558 18.9756 33.9855 19.1769C33.3787 19.3908 32.7824 19.6094 32.1965 19.8325V19.8329ZM46.7782 18.5952C47.754 18.4139 48.7016 18.2634 49.6224 18.1369C49.8641 18.6771 50.0847 19.2425 50.2841 19.8329C49.6982 19.6099 49.1019 19.3912 48.4951 19.1769C47.9261 18.9752 47.3527 18.7829 46.7782 18.5948V18.5952ZM55.4424 25.4342C56.3882 25.9531 57.2682 26.4798 58.076 27.0085C57.2682 27.5373 56.3882 28.064 55.4424 28.5828C55.4745 28.0618 55.4933 27.5371 55.4933 27.0085C55.4933 26.48 55.4745 25.9553 55.4424 25.4342ZM41.2409 11.0122C43.686 11.0122 46.2725 12.707 48.2269 15.609C45.8506 15.9623 43.516 16.4265 41.2409 16.998C38.9659 16.4265 36.6313 15.9623 34.255 15.609C36.2093 12.707 38.7959 11.0122 41.2409 11.0122ZM19.3697 19.3801C20.4093 18.2804 23.0564 17.677 26.7249 17.677C27.3841 17.677 28.0771 17.6972 28.7989 17.7367C28.2383 19.0725 27.8132 20.4311 27.5263 21.8036C25.4574 22.7638 23.5081 23.8301 21.6969 24.9923C20.3989 23.8686 19.4936 22.7719 19.0816 21.7629C18.6886 20.8001 18.7856 19.9987 19.3697 19.3801ZM19.3697 34.6369C18.7856 34.0184 18.6886 33.2169 19.0816 32.2542C19.4936 31.2452 20.3989 30.1485 21.6969 29.0247C23.5087 30.1869 25.4587 31.253 27.5284 32.213C27.8148 33.5851 28.2393 34.9433 28.7991 36.2787C24.0617 36.5382 20.5959 35.935 19.3697 34.6369V34.6369ZM41.2409 43.0048C38.7959 43.0048 36.2093 41.3101 34.255 38.4081C36.6313 38.0548 38.9659 37.5906 41.2409 37.0191C43.516 37.5906 45.8506 38.0548 48.2269 38.4081C46.2725 41.3101 43.686 43.0048 41.2409 43.0048ZM63.1122 34.6369C61.8863 35.935 58.4194 36.5382 53.6827 36.2791C54.2426 34.9436 54.6671 33.5854 54.9535 32.2133C57.0232 31.2532 58.9732 30.187 60.785 29.0247C62.083 30.1485 62.9883 31.2452 63.4003 32.2542C63.7933 33.2169 63.6963 34.0184 63.1122 34.6369Z" fill="white"/>
<path d="M41.2395 23.0093C40.0314 23.0093 38.8505 23.2438 37.846 23.6833C36.8415 24.1227 36.0586 24.7473 35.5963 25.4781C35.134 26.2089 35.013 27.013 35.2487 27.7888C35.4844 28.5645 36.0661 29.2771 36.9204 29.8365C37.7746 30.3958 38.863 30.7767 40.0479 30.931C41.2327 31.0853 42.4609 31.0061 43.577 30.7034C44.6931 30.4007 45.6471 29.8881 46.3182 29.2304C46.9894 28.5727 47.3477 27.7995 47.3477 27.0085C47.3458 25.9482 46.7017 24.9317 45.5566 24.1819C44.4115 23.4322 42.8589 23.0105 41.2395 23.0093V23.0093ZM41.2395 28.3416C40.8368 28.3416 40.4432 28.2634 40.1083 28.117C39.7735 27.9705 39.5125 27.7623 39.3584 27.5187C39.2043 27.2751 39.164 27.0071 39.2426 26.7485C39.3211 26.4899 39.5151 26.2523 39.7998 26.0659C40.0845 25.8795 40.4473 25.7525 40.8423 25.7011C41.2372 25.6496 41.6466 25.676 42.0187 25.7769C42.3907 25.8778 42.7087 26.0487 42.9324 26.2679C43.1561 26.4871 43.2756 26.7449 43.2756 27.0085C43.2749 27.362 43.0602 27.7008 42.6785 27.9507C42.2968 28.2007 41.7793 28.3412 41.2395 28.3416Z" fill="white"/>
</svg>
