<svg width="83" height="81" viewBox="0 0 83 81" fill="none" xmlns="http://www.w3.org/2000/svg">
<path d="M65.5043 25.0583C65.7237 25.1921 65.9726 25.2603 66.2216 25.2603C66.4706 25.2603 66.7196 25.1921 66.9389 25.0583C68.9806 23.8061 75.6425 19.3389 75.6425 14.4823C75.6425 12.0749 74.1553 10.2354 71.7597 9.68203C69.9832 9.27687 67.7707 9.66761 66.2216 11.0601C64.6726 9.66761 62.4614 9.27556 60.6835 9.68203C58.2879 10.2354 56.8008 12.0749 56.8008 14.4823C56.8008 19.3389 63.4627 23.8061 65.5043 25.0583ZM61.3053 12.2336C61.5462 12.1772 61.8032 12.1497 62.0684 12.1497C63.1895 12.1497 64.433 12.6624 65.0198 13.7992C65.4774 14.6855 66.9672 14.6855 67.4248 13.7992C68.1502 12.3949 69.8796 11.9412 71.1393 12.2349C71.8149 12.3909 72.9508 12.8905 72.9508 14.4823C72.9508 17.0837 69.4732 20.2581 66.2216 22.3848C62.9701 20.2581 59.4924 17.0837 59.4924 14.4823C59.4924 12.8905 60.6283 12.3909 61.3053 12.2336V12.2336Z" fill="white"/>
<path d="M64.877 0.347656H67.5686V4.28125H64.877V0.347656Z" fill="white"/>
<path d="M78.335 13.4597H82.3725V16.0823H78.335V13.4597Z" fill="white"/>
<path d="M50.0723 13.4597H54.1098V16.0823H50.0723V13.4597Z" fill="white"/>
<path d="M54.3359 5.21368L56.2388 3.35982L59.0931 6.14062L57.1902 7.99449L54.3359 5.21368Z" fill="white"/>
<path d="M73.3369 6.14252L76.1913 3.36164L78.0942 5.21556L75.2398 7.99643L73.3369 6.14252Z" fill="white"/>
<path d="M2.31553 49.9854L34.9211 30.9259L38.2292 35.2253C38.6491 35.7708 39.427 35.9098 40.0191 35.5505L49.6782 29.6698L51.6458 32.544C51.8961 32.9111 52.3174 33.1274 52.7642 33.1274C52.8234 33.1274 52.8826 33.1235 52.9432 33.1156C53.4519 33.0488 53.8785 32.7065 54.0414 32.2306L56.7331 24.3635C56.8703 23.9635 56.8003 23.523 56.5473 23.1821C56.2943 22.8412 55.8879 22.6379 55.4559 22.6379H47.3808C46.8842 22.6379 46.428 22.9041 46.1938 23.3302C45.9596 23.7564 45.9852 24.2743 46.2611 24.6755L48.1843 27.4854L39.6409 32.6869L36.345 28.4072C35.9318 27.8683 35.1674 27.7227 34.5766 28.0689L0.930664 47.7367L2.31553 49.9854ZM53.5892 25.2603L52.3577 28.8582L49.8962 25.2603H53.5892Z" fill="white"/>
<path d="M31.2285 80.3303V68.5295C31.2285 64.9144 28.2098 61.9734 24.4993 61.9734H22.4267C23.7106 60.5796 24.4993 58.7452 24.4993 56.7286C24.4993 52.3898 20.8777 48.8613 16.4243 48.8613C11.9709 48.8613 8.34929 52.3898 8.34929 56.7286C8.34929 58.7452 9.13795 60.5796 10.4219 61.9734H8.34929C4.63882 61.9734 1.62012 64.9144 1.62012 68.5295V80.3303H4.31179V68.5295C4.31179 66.3607 6.12328 64.5958 8.34929 64.5958H24.4993C26.7253 64.5958 28.5368 66.3607 28.5368 68.5295V80.3303H31.2285ZM11.041 56.7286C11.041 53.8361 13.4554 51.4837 16.4243 51.4837C19.3932 51.4837 21.8076 53.8361 21.8076 56.7286C21.8076 59.6211 19.3932 61.9734 16.4243 61.9734C13.4554 61.9734 11.041 59.6211 11.041 56.7286Z" fill="white"/>
<path d="M23.1572 69.8408H25.8489V80.3303H23.1572V69.8408Z" fill="white"/>
<path d="M7.00488 69.8408H9.69653V80.3303H7.00488V69.8408Z" fill="white"/>
<path d="M72.9521 69.8408H75.6438V80.3303H72.9521V69.8408Z" fill="white"/>
<path d="M81.0256 80.3303V68.5295C81.0256 64.9144 78.0069 61.9734 74.2964 61.9734H72.2238C73.5078 60.5796 74.2964 58.7452 74.2964 56.7286C74.2964 52.3898 70.6748 48.8613 66.2214 48.8613C61.768 48.8613 58.1464 52.3898 58.1464 56.7286C58.1464 58.7452 58.9351 60.5796 60.219 61.9734H60.0521C58.5959 61.9734 57.1397 62.3091 55.8383 62.9424L50.027 65.7733L41.1794 62.0796C40.7649 61.9052 40.2858 61.9472 39.909 62.1898C39.5321 62.4336 39.3047 62.8441 39.3047 63.2846V69.8407C39.3047 70.3651 39.625 70.8398 40.1203 71.0457L49.5411 74.9793C49.8439 75.1065 50.1831 75.1209 50.4967 75.0173L56.8006 72.9718V80.3303H59.4922V71.1519C59.4922 70.731 59.285 70.335 58.9324 70.0872C58.5798 69.8393 58.1289 69.7712 57.7198 69.9075L50.1306 72.3713L41.9964 68.9766V65.2737L49.5411 68.4232C49.9045 68.5727 50.3177 68.5622 50.673 68.3918L57.0428 65.2895C57.9728 64.8358 59.0131 64.5958 60.0534 64.5958H74.2964C76.5224 64.5958 78.3339 66.3607 78.3339 68.5295V80.3303H81.0256ZM60.8381 56.7286C60.8381 53.8361 63.2525 51.4837 66.2214 51.4837C69.1903 51.4837 71.6048 53.8361 71.6048 56.7286C71.6048 59.6211 69.1903 61.9734 66.2214 61.9734C63.2525 61.9734 60.8381 59.6211 60.8381 56.7286Z" fill="white"/>
</svg>
