<svg width="83" height="81" viewBox="0 0 83 81" fill="none" xmlns="http://www.w3.org/2000/svg">
<path d="M80.4525 5.36108H76.0782C75.4189 5.36108 74.8852 5.93899 74.8852 6.6528C74.8852 7.36593 75.4189 7.94451 76.0782 7.94451H80.0548V77.7469H18.4962C17.837 77.7469 17.3032 78.3248 17.3032 79.0386C17.3032 79.7517 17.837 80.3303 18.4962 80.3303H80.4525C81.5492 80.3303 82.4408 79.3642 82.4408 78.1775V7.51394C82.4408 6.32651 81.5492 5.36108 80.4525 5.36108Z" fill="white"/>
<path d="M12.7694 77.7469H3.38453V7.94455H16.1999C16.3795 8.18271 16.6143 8.39194 16.8989 8.55946L23.159 12.2516C23.9854 12.7394 25.3195 13.1074 26.2621 13.1074H65.109C66.5101 13.1074 67.6509 11.8749 67.6509 10.3598V7.94455H70.5104C71.1696 7.94455 71.7034 7.36597 71.7034 6.65284C71.7034 5.93903 71.1696 5.36112 70.5104 5.36112H67.6509V3.09457C67.6509 1.58017 66.5107 0.347656 65.109 0.347656H26.2621C25.3195 0.347656 23.9854 0.71566 23.159 1.20342L16.8983 4.89489C16.6752 5.02676 16.482 5.18418 16.3223 5.36112H2.98686C1.89017 5.36112 0.998535 6.32654 0.998535 7.51398V78.1775C0.998535 79.3642 1.89017 80.3303 2.98686 80.3303H12.7694C13.4287 80.3303 13.9624 79.7517 13.9624 79.0386C13.9624 78.3255 13.4287 77.7469 12.7694 77.7469V77.7469ZM59.8281 2.93108H65.109C65.1922 2.93108 65.2649 3.00778 65.2649 3.09457V10.3598C65.2649 10.4472 65.1922 10.5239 65.109 10.5239H59.8281V2.93108ZM27.9987 2.93108H57.4421V5.4358H27.9987V2.93108ZM27.9987 8.01923H57.4421V10.5239H27.9987V8.01923ZM22.8701 4.31497L24.3005 3.47199C24.6192 3.28361 25.1393 3.10735 25.6128 3.0098V10.4452C25.1393 10.3477 24.6192 10.1707 24.2998 9.98304L22.8701 9.14006V4.31497ZM20.4841 5.7224V7.73263L18.7798 6.72751L20.4841 5.7224Z" fill="white"/>
<path d="M41.7184 73.5474C46.2233 73.5474 50.1446 70.3901 51.4762 65.6908C51.6694 65.0093 51.3152 64.2867 50.6858 64.0775C50.0551 63.8683 49.3884 64.2511 49.1952 64.9333C48.1731 68.54 45.1688 70.9639 41.7184 70.9639C37.4013 70.9639 33.8894 67.1164 33.8894 62.3868C33.8894 57.6573 37.4013 53.8097 41.7184 53.8097C45.0346 53.8097 48.0022 56.1106 49.1032 59.5357C49.3195 60.2098 49.9998 60.5663 50.6218 60.3309C51.2444 60.0967 51.5731 59.3607 51.3569 58.6866C49.9222 54.2242 46.0493 51.2263 41.7184 51.2263C36.0859 51.2263 31.5034 56.2324 31.5034 62.3868C31.5034 68.5406 36.0859 73.5474 41.7184 73.5474Z" fill="white"/>
<path d="M39.0696 60.9222V59.9064C39.0696 59.1926 38.5358 58.6147 37.8766 58.6147C37.2173 58.6147 36.6836 59.1926 36.6836 59.9064V60.9222C36.6836 61.636 37.2173 62.2139 37.8766 62.2139C38.5352 62.2139 39.0696 61.6353 39.0696 60.9222Z" fill="white"/>
<path d="M46.7507 60.9222V59.9064C46.7507 59.1926 46.217 58.6147 45.5577 58.6147C44.8985 58.6147 44.3647 59.1926 44.3647 59.9064V60.9222C44.3647 61.636 44.8985 62.2139 45.5577 62.2139C46.2164 62.2139 46.7507 61.6353 46.7507 60.9222Z" fill="white"/>
<path d="M39.0734 66.8831H44.3623C45.0216 66.8831 45.5553 66.3051 45.5553 65.5912C45.5553 64.878 45.0216 64.2993 44.3623 64.2993H39.0734C38.4141 64.2993 37.8804 64.878 37.8804 65.5912C37.8804 66.3051 38.4141 66.8831 39.0734 66.8831V66.8831Z" fill="white"/>
<path d="M19.045 73.5474C24.6769 73.5474 29.2588 68.5406 29.2588 62.3868C29.2588 56.2323 24.6769 51.2256 19.045 51.2256C13.4124 51.2256 8.83057 56.2323 8.83057 62.3868C8.83057 68.5406 13.4124 73.5474 19.045 73.5474ZM19.045 53.809C23.3615 53.809 26.8728 57.6573 26.8728 62.3868C26.8728 67.1157 23.3615 70.9639 19.045 70.9639C14.7284 70.9639 11.2166 67.1157 11.2166 62.3868C11.2166 57.6573 14.7284 53.809 19.045 53.809V53.809Z" fill="white"/>
<path d="M15.2028 62.2139C15.862 62.2139 16.3958 61.636 16.3958 60.9222V59.9064C16.3958 59.1926 15.862 58.6147 15.2028 58.6147C14.5441 58.6147 14.0098 59.1926 14.0098 59.9064V60.9222C14.0098 61.6353 14.5441 62.2139 15.2028 62.2139Z" fill="white"/>
<path d="M22.8835 62.2139C23.5421 62.2139 24.0765 61.636 24.0765 60.9222V59.9064C24.0765 59.1926 23.5421 58.6147 22.8835 58.6147C22.2242 58.6147 21.6904 59.1926 21.6904 59.9064V60.9222C21.6904 61.6353 22.2242 62.2139 22.8835 62.2139Z" fill="white"/>
<path d="M14.9785 64.7461C14.9785 67.002 16.8022 68.8374 19.044 68.8374C21.2852 68.8374 23.1089 67.002 23.1089 64.7461C23.1089 64.033 22.5751 63.4543 21.9159 63.4543C21.2566 63.4543 20.7229 64.033 20.7229 64.7461C20.7229 65.5777 19.9698 66.2539 19.044 66.2539C18.1176 66.2539 17.3645 65.5777 17.3645 64.7461C17.3645 64.033 16.8301 63.4543 16.1715 63.4543C15.5123 63.4543 14.9785 64.033 14.9785 64.7461Z" fill="white"/>
<path d="M64.394 73.5474C70.0265 73.5474 74.6084 68.5406 74.6084 62.3868C74.6084 56.2323 70.0265 51.2256 64.394 51.2256C58.762 51.2256 54.1802 56.2323 54.1802 62.3868C54.1802 68.5406 58.762 73.5474 64.394 73.5474V73.5474ZM64.394 53.809C68.7105 53.809 72.2224 57.6573 72.2224 62.3868C72.2224 67.1157 68.7105 70.9639 64.394 70.9639C60.0781 70.9639 56.5662 67.1157 56.5662 62.3868C56.5662 57.6573 60.0781 53.809 64.394 53.809V53.809Z" fill="white"/>
<path d="M60.5553 62.2139C61.2146 62.2139 61.7483 61.636 61.7483 60.9222V59.9064C61.7483 59.1926 61.2146 58.6147 60.5553 58.6147C59.8967 58.6147 59.3623 59.1926 59.3623 59.9064V60.9222C59.3623 61.6353 59.8967 62.2139 60.5553 62.2139Z" fill="white"/>
<path d="M68.2369 62.2139C68.8962 62.2139 69.4299 61.636 69.4299 60.9222V59.9064C69.4299 59.1926 68.8962 58.6147 68.2369 58.6147C67.5777 58.6147 67.0439 59.1926 67.0439 59.9064V60.9222C67.0439 61.6353 67.5777 62.2139 68.2369 62.2139Z" fill="white"/>
<path d="M60.3301 66.9934C60.3301 67.7072 60.8638 68.2852 61.5231 68.2852C62.1817 68.2852 62.7161 67.7072 62.7161 66.9934C62.7161 66.1625 63.4691 65.4863 64.3949 65.4863C65.3214 65.4863 66.0751 66.1625 66.0751 66.9934C66.0751 67.7072 66.6088 68.2852 67.2681 68.2852C67.9273 68.2852 68.4611 67.7072 68.4611 66.9934C68.4611 64.7375 66.6368 62.9028 64.3949 62.9028C62.1537 62.9028 60.3301 64.7375 60.3301 66.9934Z" fill="white"/>
<path d="M10.5008 30.1365H18.7716C19.6924 30.1365 20.4418 29.3258 20.4418 28.3281V20.8718L20.9121 20.3591C21.3763 19.8525 21.3738 19.0351 20.9059 18.5326C20.6655 18.2742 20.3492 18.1498 20.0354 18.1585C19.7291 17.7737 19.2767 17.5288 18.7716 17.5288H10.5008C9.5793 17.5288 8.83057 18.3395 8.83057 19.3372V28.3287C8.83057 29.3258 9.5793 30.1365 10.5008 30.1365ZM11.2166 20.1116H17.7762L14.8502 23.3025L13.8865 22.251C13.423 21.745 12.6674 21.741 12.1995 22.2436C11.7323 22.7461 11.7286 23.5642 12.1927 24.0708L13.6665 25.6787C13.9816 26.0232 14.4016 26.2129 14.8496 26.2129H14.8502C15.2982 26.2129 15.7176 26.0238 16.0327 25.6801L18.0558 23.4741V27.553H11.2166V20.1116Z" fill="white"/>
<path d="M24.1891 23.0093H38.4031C39.0623 23.0093 39.5961 22.4314 39.5961 21.7175C39.5961 21.0037 39.0623 20.4258 38.4031 20.4258H24.1891C23.5298 20.4258 22.9961 21.0037 22.9961 21.7175C22.9961 22.4307 23.5298 23.0093 24.1891 23.0093Z" fill="white"/>
<path d="M24.1891 27.2397H32.2834C32.9427 27.2397 33.4764 26.6612 33.4764 25.948C33.4764 25.2342 32.9427 24.6562 32.2834 24.6562H24.1891C23.5298 24.6562 22.9961 25.2342 22.9961 25.948C22.9961 26.6612 23.5298 27.2397 24.1891 27.2397Z" fill="white"/>
<path d="M8.83057 44.7341C8.83057 45.7311 9.5793 46.5425 10.5008 46.5425H18.7716C19.6924 46.5425 20.4418 45.7311 20.4418 44.7341V35.7425C20.4418 34.7454 19.6924 33.9341 18.7716 33.9341H10.5008C9.5793 33.9341 8.83057 34.7454 8.83057 35.7425V44.7341ZM11.2166 36.5175H18.0558V43.9584H11.2166V36.5175Z" fill="white"/>
<path d="M24.1891 39.4155H38.4031C39.0623 39.4155 39.5961 38.8369 39.5961 38.1237C39.5961 37.4098 39.0623 36.8318 38.4031 36.8318H24.1891C23.5298 36.8318 22.9961 37.4098 22.9961 38.1237C22.9961 38.8369 23.5298 39.4155 24.1891 39.4155Z" fill="white"/>
<path d="M33.4764 42.3527C33.4764 41.6392 32.9427 41.0615 32.2834 41.0615H24.1891C23.5298 41.0615 22.9961 41.6392 22.9961 42.3527C22.9961 43.0655 23.5298 43.6438 24.1891 43.6438H32.2834C32.9421 43.6438 33.4764 43.0655 33.4764 42.3527Z" fill="white"/>
<path d="M45.5115 30.1365H53.7823C54.7032 30.1365 55.4525 29.3258 55.4525 28.3281V19.3365C55.4525 18.3394 54.7032 17.5281 53.7823 17.5281H45.5115C44.59 17.5281 43.8413 18.3394 43.8413 19.3365V28.3281C43.8413 29.3258 44.59 30.1365 45.5115 30.1365ZM46.2273 20.1115H53.0665V27.553H46.2273V20.1115Z" fill="white"/>
<path d="M58.0088 21.7175C58.0088 22.4314 58.5432 23.0093 59.2018 23.0093H73.4165C74.0751 23.0093 74.6095 22.4314 74.6095 21.7175C74.6095 21.0037 74.0751 20.4258 73.4165 20.4258H59.2018C58.5432 20.4258 58.0088 21.0037 58.0088 21.7175Z" fill="white"/>
<path d="M59.2018 27.2397H67.2968C67.9554 27.2397 68.4897 26.6612 68.4897 25.948C68.4897 25.2342 67.9554 24.6562 67.2968 24.6562H59.2018C58.5432 24.6562 58.0088 25.2342 58.0088 25.948C58.0088 26.6612 58.5432 27.2397 59.2018 27.2397Z" fill="white"/>
<path d="M55.4525 44.7341V35.7425C55.4525 34.7454 54.7032 33.9341 53.7823 33.9341H45.5115C44.59 33.9341 43.8413 34.7454 43.8413 35.7425V44.7341C43.8413 45.7311 44.59 46.5425 45.5115 46.5425H53.7823C54.7032 46.5425 55.4525 45.7311 55.4525 44.7341V44.7341ZM53.0665 43.959H46.2273V36.5175H53.0665V43.959Z" fill="white"/>
<path d="M73.4172 36.8318H59.2032C58.544 36.8318 58.0103 37.4098 58.0103 38.1237C58.0103 38.8369 58.544 39.4155 59.2032 39.4155H73.4172C74.0765 39.4155 74.6102 38.8369 74.6102 38.1237C74.6102 37.4098 74.0759 36.8318 73.4172 36.8318Z" fill="white"/>
<path d="M67.2968 43.6438C67.9554 43.6438 68.4897 43.0655 68.4897 42.3527C68.4897 41.6392 67.9554 41.0615 67.2968 41.0615H59.2018C58.5432 41.0615 58.0088 41.6392 58.0088 42.3527C58.0088 43.0655 58.5432 43.6438 59.2018 43.6438H67.2968Z" fill="white"/>
</svg>
