<svg width="82" height="81" viewBox="0 0 82 81" fill="none" xmlns="http://www.w3.org/2000/svg">
<path d="M35.0802 50.9563C34.2789 50.9563 33.6259 50.3591 33.6259 49.6233H30.7173C30.7173 51.8281 32.6748 53.6223 35.0802 53.6223C37.4857 53.6223 39.4432 51.8281 39.4432 49.6233H36.5345C36.5345 50.3591 35.8816 50.9563 35.0802 50.9563Z" fill="white"/>
<path d="M51.0775 49.6233H48.1688C48.1688 50.3591 47.5158 50.9563 46.7145 50.9563C45.9132 50.9563 45.2602 50.3591 45.2602 49.6233H42.3516C42.3516 51.8281 44.3091 53.6223 46.7145 53.6223C49.1199 53.6223 51.0775 51.8281 51.0775 49.6233Z" fill="white"/>
<path d="M77.4463 65.6197H72.8929C72.8929 64.8825 72.2413 64.2867 71.4386 64.2867H65.2621C61.8255 64.2867 58.466 63.6948 55.1531 62.4791C53.5984 61.9099 51.9638 61.6206 50.2913 61.6206H49.586C53.1316 59.1879 55.4411 55.3194 55.4411 50.9565C55.4411 43.6062 48.917 37.6262 40.8979 37.6262C32.8788 37.6262 26.3547 43.6062 26.3547 50.9565C26.3547 55.3194 28.6641 59.1879 32.2098 61.6206H31.5044C29.8334 61.6206 28.1973 61.9099 26.519 62.5244C23.3297 63.6948 19.9702 64.2867 16.5337 64.2867H10.3572C9.5544 64.2867 8.90287 64.8825 8.90287 65.6197H4.54137C3.46662 65.6197 2.4835 66.1596 1.9774 67.0287C1.4713 67.8978 1.52511 68.9456 2.12283 69.7681L2.22754 69.9107C3.3081 71.397 5.11873 72.2848 7.06897 72.2848H8.90287C8.90287 73.022 9.5544 73.6178 10.3572 73.6178H17.3932C19.9339 73.6178 22.4513 73.3219 24.9004 72.7367V80.283H27.809V70.9518C27.809 70.5239 27.585 70.1213 27.2055 69.8694C26.8259 69.6188 26.3358 69.5495 25.8951 69.6868C23.1479 70.5266 20.2873 70.9518 17.3932 70.9518H11.8115V66.9527H16.5337C20.3425 66.9527 24.0656 66.2955 27.7217 64.9545C28.9317 64.512 30.2028 64.2867 31.503 64.2867H38.3281L35.2871 68.9323C35.0312 69.3228 35.0108 69.8067 35.2333 70.2146L39.5963 78.2128C39.8435 78.6647 40.3467 78.9499 40.8979 78.9499C41.4491 78.9499 41.9523 78.6647 42.1995 78.2128L46.5624 70.2146C46.785 69.8067 46.7646 69.3228 46.5086 68.9323L43.4662 64.2867H50.2913C51.5915 64.2867 52.864 64.512 54.1962 64.9998C57.7302 66.2955 61.4532 66.9527 65.2621 66.9527H69.9842V70.9518H64.4026C61.5085 70.9518 58.6478 70.5266 55.9006 69.6881C55.4585 69.5495 54.9699 69.6188 54.5903 69.8707C54.2107 70.1213 53.9867 70.5239 53.9867 70.9518V80.283H56.8954V72.7367C59.3459 73.3219 61.8619 73.6178 64.4026 73.6178H71.4386C72.2413 73.6178 72.8929 73.022 72.8929 72.2848H74.9217C76.8704 72.2848 78.6796 71.397 79.7631 69.9094L79.8678 69.7667C80.4655 68.9469 80.5208 67.8992 80.0132 67.0287C79.5042 66.1596 78.5225 65.6197 77.4463 65.6197V65.6197ZM7.06897 69.6188C6.09458 69.6188 5.18999 69.1749 4.64753 68.4284L4.54137 68.2858H8.90287V69.6188H7.06897ZM40.8979 40.2923C44.826 40.2923 48.2974 42.0905 50.4062 44.8299C47.4438 43.6075 44.2268 42.9583 40.8979 42.9583C37.5689 42.9583 34.352 43.6075 31.3895 44.8299C33.4983 42.0905 36.9698 40.2923 40.8979 40.2923V40.2923ZM29.2633 50.9565C29.2633 50.2353 29.3433 49.5301 29.4931 48.8489C32.8526 46.7454 36.7792 45.6244 40.8979 45.6244C45.0165 45.6244 48.9432 46.7454 52.3026 48.8489C52.4524 49.5301 52.5324 50.2353 52.5324 50.9565C52.5324 56.8364 47.3129 61.6206 40.8979 61.6206C34.4829 61.6206 29.2633 56.8364 29.2633 50.9565V50.9565ZM40.8979 74.6363L38.1928 69.6774L40.8979 65.5437L43.6029 69.6774L40.8979 74.6363ZM77.3416 68.4311C76.8006 69.1749 75.896 69.6188 74.9217 69.6188H72.8929V68.2858L77.4463 68.2871L77.3416 68.4311Z" fill="white"/>
<path d="M59.5114 47.7598C62.5567 44.0446 64.1666 39.619 64.1666 34.96C64.1666 23.2001 53.7275 13.6316 40.8975 13.6316C28.0675 13.6316 17.6284 23.2001 17.6284 34.96C17.6284 39.619 19.2369 44.0433 22.2822 47.7584L24.6077 46.1575C21.9448 42.9075 20.5371 39.0364 20.5371 34.96C20.5371 24.6691 29.6702 16.2976 40.8975 16.2976C52.1249 16.2976 61.258 24.6691 61.258 34.96C61.258 39.0378 59.8502 42.9089 57.1873 46.1575L59.5114 47.7598Z" fill="white"/>
<path d="M3.08594 34.9598C3.08594 45.9641 8.5978 56.0698 18.2065 62.687L19.9531 60.5542C11.0832 54.4462 5.99458 45.1176 5.99458 34.9598C5.99458 17.3197 21.6532 2.96686 40.8982 2.96686C60.1432 2.96686 75.8019 17.3197 75.8019 34.9598C75.8019 45.1176 70.7118 54.4475 61.839 60.5568L63.5856 62.6897C73.1972 56.0712 78.7105 45.9641 78.7105 34.9598C78.7105 15.848 61.7473 0.300781 40.8982 0.300781C20.0491 0.300781 3.08594 15.848 3.08594 34.9598Z" fill="white"/>
<path d="M40.8424 34.948C40.8613 34.9493 40.8788 34.96 40.8977 34.96C40.9064 34.96 40.9151 34.9546 40.9239 34.9546C40.9442 34.956 40.9646 34.9586 40.9849 34.9586C41.0606 34.9586 41.1304 34.932 41.2045 34.9213L43.2697 34.712C48.034 34.2254 51.7324 30.8355 52.2617 26.4697L52.5235 24.3502C52.573 23.9463 52.4203 23.545 52.1061 23.2584C51.792 22.9718 51.3542 22.8252 50.9136 22.8771L48.607 23.1171C47.4087 23.2384 46.2699 23.5703 45.2126 24.0542C44.8389 23.0198 44.2732 22.0293 43.4907 21.1322L42.035 19.4632C41.4838 18.83 40.3145 18.83 39.7633 19.4632L38.3075 21.1322C37.5251 22.0293 36.9579 23.0198 36.5856 24.0542C35.5283 23.5717 34.3911 23.2397 33.1956 23.1184L30.8832 22.8771C30.444 22.8252 30.0048 22.9718 29.6907 23.2584C29.3766 23.545 29.2239 23.9476 29.2733 24.3502L29.5351 26.4671C30.0645 30.8342 33.7613 34.2241 38.5286 34.712L40.6504 34.9293C40.6853 34.9346 40.7261 34.9386 40.7668 34.9413V34.9426C40.7915 34.9466 40.8177 34.9466 40.8424 34.948V34.948ZM48.9299 25.7672L49.4273 25.7165L49.3705 26.1751C49.039 28.9039 46.9753 31.1008 44.1859 31.8393C45.2228 30.3023 45.7493 28.58 45.726 26.8483C46.6786 26.2631 47.7664 25.8845 48.9299 25.7672ZM40.5763 22.7985L40.8977 22.4306L41.2191 22.7985C43.3584 25.25 43.3584 28.6733 41.2191 31.1248L40.8977 31.4927L40.5763 31.1248C38.4384 28.6733 38.4384 25.25 40.5763 22.7985V22.7985ZM32.4248 26.1711L32.3681 25.7152L32.8698 25.7672C34.0289 25.8832 35.1168 26.2631 36.0693 26.847C36.0461 28.5773 36.5725 30.2996 37.608 31.8366C34.8186 31.0981 32.7549 28.9026 32.4248 26.1711V26.1711Z" fill="white"/>
<path d="M78.71 60.2876H81.6186V62.9529H78.71V60.2876Z" fill="white"/>
<path d="M0.17627 60.2876H3.0849V62.9526H0.17627V60.2876Z" fill="white"/>
</svg>
