<svg width="82" height="81" viewBox="0 0 82 81" fill="none" xmlns="http://www.w3.org/2000/svg">
<path d="M80.5397 77.5723H61.1972L64.3362 77.0724C68.6628 76.3829 71.632 72.2459 70.9364 67.833C70.3255 63.9028 67 61.0242 63.0806 61.0242C63.0297 61.0242 62.9958 61.0242 62.9449 61.0242L52.7646 62.0412C52.035 60.1795 50.6777 56.4045 50.6777 53.4396C50.6777 50.2506 52.2556 46.0791 52.9512 44.4071C55.6151 44.0623 57.8378 42.1834 58.6861 39.5978L63.6405 24.4804C64.1495 22.9462 63.6405 21.2569 62.368 20.2744L47.7424 7.77708L45.1464 1.20954C44.9428 0.692409 44.4338 0.347656 43.8908 0.347656H38.4614C37.9014 0.347656 37.4094 0.692409 37.2058 1.20954L34.6098 7.77708L19.9842 20.2744C18.7286 21.2569 18.2196 22.9462 18.7117 24.4804L23.6661 39.5978C24.5144 42.1834 26.7371 44.0451 29.4009 44.4071C30.0966 46.0619 31.6745 50.2334 31.6745 53.4396C31.6745 56.4045 30.3172 60.1795 29.5706 62.0584L19.3903 61.0414C19.3394 61.0414 19.3055 61.0414 19.2546 61.0414C14.8771 61.0242 11.314 64.6441 11.314 69.0914C11.314 73.056 14.1645 76.4519 18.016 77.0724L21.1549 77.5723H1.81245C1.06589 77.5723 0.455078 78.1929 0.455078 78.9513C0.455078 79.7098 1.06589 80.3303 1.81245 80.3303H80.5397C81.2863 80.3303 81.8971 79.7098 81.8971 78.9513C81.8971 78.1929 81.2863 77.5723 80.5397 77.5723V77.5723ZM31.6745 42.804V36.202H34.525C35.2715 39.9253 38.8686 42.3386 42.5335 41.5801C45.1973 41.0285 47.2842 38.9083 47.8272 36.202H50.6777V42.804C50.0499 44.2519 49.5069 45.7344 49.0488 47.234H33.3034C32.8452 45.7171 32.3023 44.2519 31.6745 42.804V42.804ZM51.509 33.4439H47.9629C48.8452 32.2545 49.3203 30.8066 49.3203 29.3069V25.1699C49.3203 22.6876 48.2005 20.5157 46.5037 19.2918C46.6056 18.7402 46.6225 18.1886 46.5547 17.637L54.5122 24.2563L51.509 33.4439ZM38.4614 18.2748C38.4614 16.7579 39.683 15.5168 41.1761 15.5168C42.6692 15.5168 43.8908 16.7579 43.8908 18.2748V18.292C43.7381 18.2748 43.5854 18.2748 43.4327 18.2748H38.9025C38.7498 18.2748 38.5971 18.292 38.4444 18.292C38.4614 18.292 38.4614 18.2748 38.4614 18.2748V18.2748ZM38.9195 21.0328H43.4497C45.1973 21.0328 46.6225 22.8945 46.6225 25.1699V25.8938L41.7021 23.8943C41.3797 23.7564 41.0234 23.7564 40.701 23.8943L35.7806 25.8938V25.1699C35.7466 22.8945 37.1719 21.0328 38.9195 21.0328ZM41.1761 26.6523L46.6056 28.8587V29.3069C46.6056 31.5823 44.7731 33.4439 42.5335 33.4439H39.8187C37.5791 33.4439 35.7466 31.5823 35.7466 29.3069V28.8587L41.1761 26.6523ZM39.8187 36.202H42.5335C43.4327 36.202 44.332 36.0123 45.1634 35.6676C44.7052 37.9085 42.5504 39.3392 40.3447 38.8738C38.7498 38.5463 37.5112 37.2707 37.1888 35.6676C38.0202 36.0123 38.9195 36.202 39.8187 36.202V36.202ZM35.8484 19.2918C34.1687 20.4985 33.0319 22.6876 33.0319 25.1699V29.3069C33.0319 30.8066 33.507 32.2545 34.3893 33.4439H30.8431L27.823 24.2563L35.7806 17.637C35.7127 18.1886 35.7466 18.7575 35.8484 19.2918V19.2918ZM45.35 9.13885C45.4348 9.34571 45.5706 9.53532 45.7402 9.69046L60.6543 22.4291C60.6713 22.4463 60.6882 22.4636 60.7052 22.4808C61.0615 22.7394 61.1972 23.2048 61.0615 23.6357L56.1071 38.7359C55.6829 40.0459 54.6819 41.063 53.3924 41.4939V36.426L57.0912 25.1354C57.4475 24.0494 57.1082 22.86 56.2429 22.136L42.5335 10.7247V3.10568H42.9746L45.35 9.13885ZM28.9598 41.4939C27.6703 41.063 26.6692 40.0459 26.245 38.7359L21.2907 23.6185C21.1549 23.1875 21.2907 22.7221 21.647 22.4636C21.6639 22.4463 21.6809 22.4291 21.6979 22.4118L36.6119 9.67322C36.7816 9.53532 36.9173 9.34571 37.0022 9.12162L39.3776 3.08844H39.8187V10.7075L26.1093 22.1016C25.244 22.8255 24.9046 24.0149 25.261 25.1009L28.9598 36.3916V41.4939ZM34.3893 53.4396C34.3723 52.2847 34.2365 51.1298 33.999 49.9921H48.3532C48.1156 51.1298 47.9799 52.2847 47.9629 53.4396C47.9629 56.5079 49.1336 60.1278 49.965 62.3342L49.2524 62.4032H33.0998L32.3871 62.3342C33.2185 60.1278 34.3893 56.5079 34.3893 53.4396V53.4396ZM14.0287 69.0914C14.0287 66.1782 16.3363 63.8167 19.2037 63.7822L32.9131 65.1612H33.0489H49.3373H49.473L63.1824 63.7822C66.0668 63.8167 68.3913 66.2299 68.3574 69.1603C68.3234 71.746 66.457 73.9352 63.9459 74.3489L54.3934 75.883L53.1888 74.0558C53.0021 73.78 52.7476 73.5904 52.4253 73.487L49.2015 72.5561L56.667 69.1776C57.3457 68.8673 57.6681 68.0571 57.3627 67.3504C57.0573 66.6436 56.2598 66.3334 55.5642 66.6436L45.1125 71.3667L42.9067 70.729C42.6522 70.66 42.3638 70.66 42.1093 70.7462L38.5292 71.9528L26.788 66.6609C26.1093 66.3506 25.2949 66.6609 24.9895 67.3676C24.6841 68.0744 24.9895 68.8845 25.6851 69.1948L37.087 74.3489V77.3482L18.4232 74.3489C15.8951 73.9524 14.0118 71.7115 14.0287 69.0914V69.0914ZM39.8187 77.5723V74.435L42.5674 73.5042L51.1867 76.0037L52.2217 77.5723H39.8187Z" fill="white"/>
</svg>
