<svg width="12" height="25" viewBox="0 0 12 25" fill="none" xmlns="http://www.w3.org/2000/svg">
<path d="M11.5481 0.385853L8.66986 0.380859C5.43624 0.380859 3.34653 2.69914 3.34653 6.28729V9.01055H0.452578C0.202506 9.01055 0 9.22977 0 9.50017V13.4459C0 13.7163 0.202736 13.9352 0.452578 13.9352H3.34653V23.8915C3.34653 24.1619 3.54904 24.3809 3.79911 24.3809H7.5749C7.82497 24.3809 8.02748 24.1616 8.02748 23.8915V13.9352H11.4112C11.6613 13.9352 11.8638 13.7163 11.8638 13.4459L11.8652 9.50017C11.8652 9.37034 11.8174 9.246 11.7326 9.15412C11.6479 9.06224 11.5324 9.01055 11.4123 9.01055H8.02748V6.70201C8.02748 5.59243 8.27201 5.02915 9.60873 5.02915L11.5477 5.0284C11.7975 5.0284 12 4.80919 12 4.53903V0.875226C12 0.605322 11.7977 0.386352 11.5481 0.385853Z" fill="#183B56"/>
</svg>
