<svg width="22" height="23" viewBox="0 0 22 23" fill="none" xmlns="http://www.w3.org/2000/svg">
<path d="M11.2266 9.80534H21.8246C21.9415 10.4451 22 11.0562 22 11.6387C22 13.7107 21.5566 15.5608 20.6698 17.1888C19.7829 18.8168 18.5185 20.0892 16.8764 21.0059C15.2343 21.9225 13.3511 22.3809 11.2266 22.3809C9.69657 22.3809 8.23965 22.092 6.85581 21.5143C5.47198 20.9366 4.27818 20.156 3.27442 19.1725C2.27065 18.189 1.47398 17.0193 0.884385 15.6634C0.294795 14.3075 0 12.88 0 11.3809C0 9.88173 0.294795 8.45421 0.884385 7.09831C1.47398 5.7424 2.27065 4.5727 3.27442 3.58919C4.27818 2.60569 5.47198 1.82509 6.85581 1.2474C8.23965 0.669705 9.69657 0.380859 11.2266 0.380859C14.1502 0.380859 16.6596 1.34049 18.7548 3.25977L15.6997 6.13867C14.501 5.00239 13.01 4.43425 11.2266 4.43425C9.96944 4.43425 8.80731 4.74457 7.7402 5.36523C6.67309 5.98589 5.82769 6.82856 5.20399 7.89323C4.58029 8.9579 4.26844 10.1204 4.26844 11.3809C4.26844 12.6413 4.58029 13.8038 5.20399 14.8685C5.82769 15.9332 6.67309 16.7758 7.7402 17.3965C8.80731 18.0171 9.96944 18.3275 11.2266 18.3275C12.0744 18.3275 12.854 18.2129 13.5654 17.9837C14.2769 17.7546 14.8616 17.4681 15.3196 17.1243C15.7776 16.7806 16.1772 16.3891 16.5183 15.9499C16.8594 15.5106 17.1103 15.0953 17.2711 14.7038C17.4319 14.3123 17.5415 13.9399 17.6 13.5866H11.2266V9.80534Z" fill="#183B56"/>
</svg>
