<svg width="30" height="30" viewBox="0 0 30 30" fill="none" xmlns="http://www.w3.org/2000/svg">
<path d="M24.6341 29.4864C18.2178 30.1712 11.7822 30.1712 5.36591 29.4864C2.80746 29.2133 0.786667 27.1925 0.513611 24.6339C-0.171204 18.2176 -0.171204 11.7822 0.513611 5.36591C0.786667 2.80746 2.80746 0.786667 5.36591 0.513611C11.7822 -0.171204 18.2176 -0.171204 24.6339 0.513611C27.1925 0.786667 29.2133 2.80746 29.4864 5.36591C30.1712 11.7822 30.1712 18.2176 29.4864 24.6339C29.2133 27.1925 27.1928 29.2133 24.6341 29.4864Z" fill="url(#paint0_linear)"/>
<path d="M27.8546 6.451C27.6125 4.18072 25.8194 2.38743 23.5489 2.14504C17.8553 1.53759 12.1447 1.53759 6.451 2.14504C4.18072 2.38743 2.38743 4.18072 2.14504 6.451C1.53759 12.1447 1.53759 17.8553 2.14504 23.5487C2.38743 25.8192 4.18072 27.6125 6.451 27.8547C12.1447 28.4623 17.8553 28.4623 23.5487 27.8547C25.8192 27.6125 27.6125 25.8192 27.8546 23.5487C28.4623 17.8553 28.4623 12.1447 27.8546 6.451V6.451Z" fill="url(#paint1_linear)"/>
<path d="M0.449707 24.012C0.470306 24.2193 0.491592 24.4267 0.513794 24.6341C0.78685 27.1925 2.80765 29.2133 5.36632 29.4864C11.7826 30.1712 18.218 30.1712 24.6343 29.4864C27.1929 29.2133 29.2135 27.1925 29.4866 24.6341C29.5088 24.4267 29.5301 24.2193 29.5509 24.012H0.449707Z" fill="url(#paint2_linear)"/>
<path d="M20.1687 4.99609C17.5549 4.99609 15.4362 7.11508 15.4362 9.72891V13.264H12.8892V17.6409L15.4362 19.9222V29.9985C18.5036 29.9836 21.5709 29.8131 24.634 29.4862C27.1927 29.2132 29.2132 27.1924 29.4863 24.6337C29.9958 19.8597 30.126 15.0751 29.8772 10.2956L24.5777 4.99609H20.1687Z" fill="url(#paint3_linear)"/>
<path d="M15.4362 29.9985C17.1841 29.99 18.9319 29.9307 20.6789 29.8208V17.6409H24.1575L24.5777 13.264H20.6789V10.4847C20.6789 9.87082 21.1765 9.37323 21.7904 9.37323H24.5777V4.99609H20.1687C17.5549 4.99609 15.4362 7.11508 15.4362 9.72891V13.264H12.8892V17.6409H15.4362V29.9985Z" fill="white"/>
<defs>
<linearGradient id="paint0_linear" x1="9.96059" y1="4.21794" x2="17.5484" y2="20.4524" gradientUnits="userSpaceOnUse">
<stop stop-color="#3457A0"/>
<stop offset="1" stop-color="#3B5998"/>
</linearGradient>
<linearGradient id="paint1_linear" x1="20.6908" y1="18.9101" x2="-5.5341" y2="0.891079" gradientUnits="userSpaceOnUse">
<stop stop-color="#3457A0" stop-opacity="0"/>
<stop offset="1" stop-color="#1F3F77"/>
</linearGradient>
<linearGradient id="paint2_linear" x1="15.0002" y1="25.0707" x2="15.0002" y2="29.1302" gradientUnits="userSpaceOnUse">
<stop stop-color="#3457A0" stop-opacity="0"/>
<stop offset="1" stop-color="#1F3F77"/>
</linearGradient>
<linearGradient id="paint3_linear" x1="34.44" y1="24.775" x2="13.6175" y2="14.2755" gradientUnits="userSpaceOnUse">
<stop stop-color="#3457A0" stop-opacity="0"/>
<stop offset="0.3251" stop-color="#2A4C8D" stop-opacity="0.32549"/>
<stop offset="0.7045" stop-color="#22427D" stop-opacity="0.705882"/>
<stop offset="1" stop-color="#1F3F77"/>
</linearGradient>
</defs>
</svg>
