<svg id="Capa_1" enable-background="new 0 0 512 512" height="512" viewBox="0 0 512 512" width="512" xmlns="http://www.w3.org/2000/svg" xmlns:xlink="http://www.w3.org/1999/xlink"><linearGradient id="SVGID_1_" gradientUnits="userSpaceOnUse" x1="256" x2="256" y1="512" y2="0"><stop offset="0" stop-color="#fd3a84"/><stop offset="1" stop-color="#ffa68d"/></linearGradient><linearGradient id="lg1"><stop offset="0" stop-color="#ffc2cc"/><stop offset="1" stop-color="#fff2f4"/></linearGradient><linearGradient id="SVGID_2_" gradientUnits="userSpaceOnUse" x1="256" x2="256" xlink:href="#lg1" y1="421" y2="211"/><linearGradient id="SVGID_3_" gradientUnits="userSpaceOnUse" x1="256" x2="256" xlink:href="#lg1" y1="181" y2="91"/><g><path d="m256 512c-141.538 0-256-114.344-256-256 0-141.535 114.344-256 256-256 141.538 0 256 114.344 256 256 0 141.535-114.344 256-256 256z" fill="url(#SVGID_1_)"/><path d="m286 421h-60c-8.284 0-15-6.716-15-15v-180c0-8.284 6.716-15 15-15h60c8.284 0 15 6.716 15 15v180c0 8.284-6.716 15-15 15z" fill="url(#SVGID_2_)"/><path d="m256 181c-24.813 0-45-20.187-45-45s20.187-45 45-45 45 20.187 45 45-20.187 45-45 45z" fill="url(#SVGID_3_)"/></g></svg>