<svg width="30" height="30" viewBox="0 0 30 30" fill="none" xmlns="http://www.w3.org/2000/svg">
<g clip-path="url(#clip0)">
<path d="M1.87513 2.04113C-0.482373 4.48988 0.000126994 7.09113 0.000126994 14.9936C0.000126994 21.5561 -1.14487 28.1349 4.84763 29.6836C6.71888 30.1649 23.2989 30.1649 25.1676 29.6811C27.6626 29.0374 29.6926 27.0136 29.9701 23.4849C30.0089 22.9924 30.0089 7.00363 29.9689 6.50113C29.6739 2.74238 27.3601 0.576125 24.3114 0.137375C23.6126 0.0361249 23.4726 0.00612489 19.8876 -0.000125107C7.17138 0.00612489 4.38388 -0.560125 1.87513 2.04113V2.04113Z" fill="url(#paint0_linear)"/>
<path d="M15.0813 4.14863C10.5425 4.14863 6.2325 3.74488 4.58625 7.96988C3.90625 9.71488 4.005 11.9811 4.005 15.2261C4.005 18.0736 3.91375 20.7499 4.58625 22.4811C6.22875 26.7086 10.5738 26.3036 15.0788 26.3036C19.425 26.3036 23.9063 26.7561 25.5725 22.4811C26.2538 20.7186 26.1538 18.4861 26.1538 15.2261C26.1538 10.8986 26.3925 8.10488 24.2938 6.00738C22.1688 3.88238 19.295 4.14863 15.0763 4.14863H15.0813ZM14.0888 6.14488C23.5563 6.12988 24.7613 5.07738 24.0963 19.6986C23.86 24.8699 19.9225 24.3024 15.0825 24.3024C6.2575 24.3024 6.00375 24.0499 6.00375 15.2211C6.00375 6.28988 6.70375 6.14988 14.0888 6.14238V6.14488ZM20.9938 7.98363C20.26 7.98363 19.665 8.57863 19.665 9.31238C19.665 10.0461 20.26 10.6411 20.9938 10.6411C21.7275 10.6411 22.3225 10.0461 22.3225 9.31238C22.3225 8.57863 21.7275 7.98363 20.9938 7.98363V7.98363ZM15.0813 9.53738C11.94 9.53738 9.39375 12.0849 9.39375 15.2261C9.39375 18.3674 11.94 20.9136 15.0813 20.9136C18.2225 20.9136 20.7675 18.3674 20.7675 15.2261C20.7675 12.0849 18.2225 9.53738 15.0813 9.53738V9.53738ZM15.0813 11.5336C19.9625 11.5336 19.9688 18.9186 15.0813 18.9186C10.2013 18.9186 10.1938 11.5336 15.0813 11.5336Z" fill="white"/>
</g>
<defs>
<linearGradient id="paint0_linear" x1="1.93265" y1="28.0837" x2="29.8145" y2="3.95235" gradientUnits="userSpaceOnUse">
<stop stop-color="#FFDD55"/>
<stop offset="0.5" stop-color="#FF543E"/>
<stop offset="1" stop-color="#C837AB"/>
</linearGradient>
<clipPath id="clip0">
<rect width="30" height="30" fill="white"/>
</clipPath>
</defs>
</svg>
