<svg width="30" height="30" viewBox="0 0 30 30" fill="none" xmlns="http://www.w3.org/2000/svg">
<g clip-path="url(#clip0)">
<path d="M24.6341 29.4864C18.2178 30.1712 11.7822 30.1712 5.36591 29.4864C2.80746 29.2133 0.786667 27.1925 0.513611 24.6339C-0.171204 18.2176 -0.171204 11.7822 0.513611 5.36591C0.786667 2.80746 2.80746 0.786667 5.36591 0.513611C11.7822 -0.171204 18.2176 -0.171204 24.6339 0.513611C27.1925 0.786667 29.2133 2.80746 29.4864 5.36591C30.1712 11.7822 30.1712 18.2176 29.4864 24.6339C29.2133 27.1925 27.1928 29.2133 24.6341 29.4864Z" fill="url(#paint0_linear)"/>
<path d="M27.8547 6.451C27.6125 4.18072 25.8194 2.38743 23.5489 2.14504C17.8553 1.53759 12.1447 1.53759 6.451 2.14504C4.18072 2.38743 2.38743 4.18072 2.14504 6.451C1.53759 12.1447 1.53759 17.8553 2.14504 23.5487C2.38743 25.8192 4.18072 27.6125 6.451 27.8546C12.1447 28.4623 17.8553 28.4623 23.5487 27.8546C25.8192 27.6125 27.6125 25.8192 27.8547 23.5487C28.4623 17.8553 28.4623 12.1447 27.8547 6.451V6.451Z" fill="url(#paint1_linear)"/>
<path d="M0.449707 24.012C0.470306 24.2193 0.491592 24.4267 0.513794 24.6341C0.78685 27.1925 2.80765 29.2133 5.36632 29.4864C11.7826 30.1712 18.218 30.1712 24.6343 29.4864C27.1929 29.2133 29.2135 27.1925 29.4866 24.6341C29.5088 24.4267 29.5301 24.2193 29.5509 24.012H0.449707Z" fill="url(#paint2_linear)"/>
<path d="M29.1628 25.9905L9.80307 6.63049C9.37071 6.0663 8.69048 5.70215 7.92487 5.70215C6.61887 5.70215 5.56006 6.76073 5.56006 8.06673C5.56006 8.83257 5.92444 9.5128 6.48863 9.94493L25.7811 29.2376C27.3405 28.7187 28.5833 27.5205 29.1628 25.9905V25.9905Z" fill="url(#paint3_linear)"/>
<path d="M9.91118 11.9824H5.93848V24.2976L11.5754 29.9345C15.9292 30.0993 20.2859 29.9503 24.6338 29.4862C25.3939 29.4051 26.1059 29.1687 26.7395 28.8107L9.91118 11.9824Z" fill="url(#paint4_linear)"/>
<path d="M23.403 13.0144C22.6763 12.2177 21.6301 11.7178 20.4671 11.7178C18.6276 11.7178 17.4404 12.3639 16.7339 12.9638L15.9554 11.9828H12.2949V24.298L17.9488 29.9519C20.1785 29.8793 22.4074 29.7241 24.6342 29.4866C27.1928 29.2135 29.2134 27.1927 29.4865 24.6343C29.6691 22.9236 29.8025 21.2116 29.8877 19.4991L23.403 13.0144Z" fill="url(#paint5_linear)"/>
<path d="M5.93848 11.9827H9.91095V24.2979H5.93848V11.9827Z" fill="white"/>
<path d="M20.4667 11.7178C17.5555 11.7178 16.2767 13.3357 15.9549 13.8283V11.9828H12.2944V24.298H16.2671V18.112C16.2671 16.3245 17.09 14.934 18.6507 14.934C20.2112 14.934 20.4667 16.6648 20.4667 18.7932V24.298H24.4394V15.6905C24.4394 13.4964 22.6607 11.7178 20.4667 11.7178V11.7178Z" fill="white"/>
<path d="M10.2894 8.06696C10.2894 9.37296 9.23087 10.4315 7.92487 10.4315C6.61887 10.4315 5.56006 9.37296 5.56006 8.06696C5.56006 6.76096 6.61887 5.70215 7.92487 5.70215C9.23087 5.70215 10.2894 6.76096 10.2894 8.06696Z" fill="white"/>
</g>
<defs>
<linearGradient id="paint0_linear" x1="9.96059" y1="4.21794" x2="17.5484" y2="20.4524" gradientUnits="userSpaceOnUse">
<stop stop-color="#0077B5"/>
<stop offset="1" stop-color="#0066B2"/>
</linearGradient>
<linearGradient id="paint1_linear" x1="21.3446" y1="18.4035" x2="-22.2414" y2="-4.97771" gradientUnits="userSpaceOnUse">
<stop stop-color="#0066B2" stop-opacity="0"/>
<stop offset="1" stop-color="#07485E"/>
</linearGradient>
<linearGradient id="paint2_linear" x1="15.0002" y1="24.3648" x2="15.0002" y2="30.6348" gradientUnits="userSpaceOnUse">
<stop stop-color="#0066B2" stop-opacity="0"/>
<stop offset="1" stop-color="#07485E"/>
</linearGradient>
<linearGradient id="paint3_linear" x1="15.8995" y1="16.0415" x2="4.68246" y2="4.82452" gradientUnits="userSpaceOnUse">
<stop stop-color="#0066B2" stop-opacity="0"/>
<stop offset="1" stop-color="#07485E"/>
</linearGradient>
<linearGradient id="paint4_linear" x1="22.4852" y1="26.4625" x2="-0.103016" y2="15.8743" gradientUnits="userSpaceOnUse">
<stop stop-color="#0066B2" stop-opacity="0"/>
<stop offset="1" stop-color="#07485E"/>
</linearGradient>
<linearGradient id="paint5_linear" x1="27.9804" y1="28.7846" x2="12.2444" y2="13.0486" gradientUnits="userSpaceOnUse">
<stop stop-color="#0066B2" stop-opacity="0"/>
<stop offset="1" stop-color="#07485E"/>
</linearGradient>
<clipPath id="clip0">
<rect width="30" height="30" fill="white"/>
</clipPath>
</defs>
</svg>
