<svg width="390" height="512" viewBox="0 0 390 512" fill="none" xmlns="http://www.w3.org/2000/svg">
<path d="M194.998 0.004C194.973 0.004 194.95 0 194.925 0C87.9473 0.527 0.90625 88.993 0.90625 196C0.90625 323.471 165.745 488.577 184.539 506.873C187.454 509.7 191.219 511.121 194.998 511.121C198.777 511.121 202.542 509.7 205.457 506.873C224.251 488.577 389.09 323.471 389.09 196C389.09 89.017 302.085 0.571 194.998 0.004ZM194.998 331C120.439 331 59.9982 270.559 59.9982 196C59.9982 121.441 120.439 60 194.998 60C269.557 60 329.998 121.441 329.998 196C329.998 270.559 269.557 331 194.998 331Z" fill="#FF7C48"/>
</svg>
