
<svg width="30" height="30" viewBox="0 0 30 30" fill="none" xmlns="http://www.w3.org/2000/svg">
<g clip-path="url(#clip0)">
<path d="M24.6341 29.4864C18.2178 30.1712 11.7822 30.1712 5.36591 29.4864C2.80746 29.2133 0.786667 27.1925 0.513611 24.6339C-0.171204 18.2176 -0.171204 11.7822 0.513611 5.36591C0.786667 2.80746 2.80746 0.786667 5.36591 0.513611C11.7822 -0.171204 18.2176 -0.171204 24.6339 0.513611C27.1925 0.786667 29.2133 2.80746 29.4864 5.36591C30.1712 11.7822 30.1712 18.2176 29.4864 24.6339C29.2133 27.1925 27.1928 29.2133 24.6341 29.4864Z" fill="url(#paint0_linear)"/>
<path d="M27.8547 6.451C27.6125 4.18072 25.8194 2.38743 23.5489 2.14504C17.8553 1.53759 12.1447 1.53759 6.451 2.14504C4.18072 2.38743 2.38743 4.18072 2.14504 6.451C1.53759 12.1447 1.53759 17.8553 2.14504 23.5487C2.38743 25.8192 4.18072 27.6125 6.451 27.8547C12.1447 28.4623 17.8553 28.4623 23.5487 27.8547C25.8192 27.6125 27.6125 25.8192 27.8547 23.5487C28.4623 17.8553 28.4623 12.1447 27.8547 6.451V6.451Z" fill="url(#paint1_linear)"/>
<path d="M0.449707 24.012C0.470306 24.2193 0.491592 24.4267 0.513794 24.6341C0.78685 27.1925 2.80765 29.2133 5.36632 29.4864C11.7826 30.1712 18.218 30.1712 24.6343 29.4864C27.193 29.2133 29.2135 27.1925 29.4866 24.6341C29.5088 24.4267 29.5301 24.2193 29.5509 24.012H0.449707Z" fill="url(#paint2_linear)"/>
<path d="M29.9934 13.9458L23.7662 7.71884C23.0683 8.11778 22.4533 8.33911 21.9901 8.46179C21.7296 8.5316 21.517 8.5696 21.3641 8.59042C20.6619 7.87059 19.6813 7.42358 18.596 7.42358C16.4605 7.42358 14.729 9.15485 14.729 11.2908C14.729 11.3679 14.7311 11.4441 14.7361 11.5201C14.7464 11.7053 14.77 11.8872 14.8064 12.0642C13.9149 12.0509 11.0172 11.8129 8.25372 9.44392C8.25349 9.44392 8.25349 9.4437 8.25349 9.4437H8.25327L6.95001 8.14021C6.95001 8.14021 5.42108 10.8087 7.66893 12.8337C7.76758 12.9438 7.87607 13.0525 7.99486 13.1594C8.00424 13.1699 8.01408 13.1802 8.02347 13.1907C7.72844 13.1708 6.84106 13.0825 6.32745 12.7197C6.32745 12.7197 6.22423 14.3507 7.5831 15.5514L8.68036 16.6581C8.34619 16.6857 7.97655 16.6791 7.71951 16.5665C7.71951 16.5665 7.94702 17.5326 8.82639 18.3058L10.3636 19.851C9.44139 20.3881 7.82709 21.0604 5.70215 20.8887L15.027 30C18.2309 29.9991 21.4348 29.8279 24.6339 29.4864C27.1926 29.2134 29.2134 27.1926 29.4864 24.6341C29.8661 21.075 30.0348 17.5099 29.9934 13.9458V13.9458Z" fill="url(#paint3_linear)"/>
<path d="M24.2979 9.22076C23.6341 9.56798 22.6344 9.72842 22.3029 9.77466C22.3002 9.75864 22.2975 9.7433 22.2947 9.72797C23.4215 9.03102 23.7664 7.71884 23.7664 7.71884C23.0686 8.11778 22.4536 8.33911 21.9903 8.46179C21.7298 8.5316 21.5172 8.56937 21.3643 8.59042C20.6621 7.87036 19.6816 7.42358 18.5962 7.42358C16.4607 7.42358 14.7292 9.15462 14.7292 11.2908C14.7292 11.3677 14.7313 11.4441 14.7363 11.5199C14.7466 11.705 14.7702 11.887 14.8066 12.0639C13.773 12.0486 10.042 11.7316 6.95024 8.14021C6.95024 8.14021 5.22859 11.1441 8.12303 13.196C8.12303 13.196 6.95024 13.1594 6.32768 12.7197C6.32768 12.7197 6.14458 15.6141 9.47824 16.5296C9.47824 16.5296 8.30614 16.8231 7.71951 16.5665C7.71951 16.5665 8.30591 19.0576 11.2367 19.2412C11.2367 19.2412 9.13469 21.1656 5.70215 20.8887C7.39038 21.9576 9.39195 22.5762 11.5379 22.5762C17.572 22.5762 22.4636 17.6848 22.4636 11.6508C22.4636 11.5755 22.4629 11.5002 22.4613 11.4249C22.4629 11.3803 22.4636 11.3359 22.4636 11.2908C22.4636 11.2594 22.4629 11.2281 22.4625 11.1967C23.578 10.4533 24.2979 9.22076 24.2979 9.22076V9.22076Z" fill="white"/>
</g>
<defs>
<linearGradient id="paint0_linear" x1="9.96059" y1="4.21794" x2="17.5484" y2="20.4524" gradientUnits="userSpaceOnUse">
<stop stop-color="#00C3FF"/>
<stop offset="1" stop-color="#00B0ED"/>
</linearGradient>
<linearGradient id="paint1_linear" x1="21.3446" y1="18.4035" x2="-22.2414" y2="-4.97771" gradientUnits="userSpaceOnUse">
<stop stop-color="#00B0ED" stop-opacity="0"/>
<stop offset="1" stop-color="#00A2CE"/>
</linearGradient>
<linearGradient id="paint2_linear" x1="15.0002" y1="25.6279" x2="15.0002" y2="29.5589" gradientUnits="userSpaceOnUse">
<stop stop-color="#00B0ED" stop-opacity="0"/>
<stop offset="1" stop-color="#00A2CE"/>
</linearGradient>
<linearGradient id="paint3_linear" x1="28.6768" y1="28.2465" x2="14.0209" y2="13.5906" gradientUnits="userSpaceOnUse">
<stop stop-color="#00B0ED" stop-opacity="0"/>
<stop offset="1" stop-color="#00A2CE"/>
</linearGradient>
<clipPath id="clip0">
<rect width="30" height="30" fill="white"/>
</clipPath>
</defs>
</svg>
