<svg width="30" height="30" viewBox="0 0 30 30" fill="none" xmlns="http://www.w3.org/2000/svg">
<path d="M1.64898 22.9143C2.24065 24.9599 4.05069 25.3341 4.17144 25.4059C7.15034 26.1968 23.8476 26.1992 26.8712 25.4059C28.9421 24.8222 29.3224 23.032 29.3937 22.9143C30.1822 18.8255 30.2341 13.4951 29.3574 8.85551L29.3937 9.08619C28.802 7.04063 26.992 6.66636 26.8712 6.59456C23.9322 5.81659 7.19139 5.78717 4.17144 6.59456C2.10058 7.17951 1.72022 8.96849 1.64898 9.08619C0.804935 13.3833 0.762672 18.3136 1.64898 22.9143V22.9143ZM12.6203 20.2979V11.7143L20.1865 16.0126L12.6203 20.2979Z" fill="#E53935"/>
</svg>